<svg width="171" height="20" viewBox="0 0 171 20" fill="none" xmlns="http://www.w3.org/2000/svg">
<path d="M3.99178 16.6294H9.13679V19.3244H0.46991V0H3.99178V16.6294Z" fill="#1B2233"/>
<path d="M16.5782 4.2875H20.0082V19.3244H16.5169V18.0381C16.2107 18.8956 15.5063 19.3244 14.4038 19.3244H13.4544C11.3719 19.3244 10.3307 18.3137 10.3307 16.2925V7.31938C10.3307 5.29813 11.3719 4.2875 13.4544 4.2875H14.4038C15.6084 4.2875 16.3332 4.7775 16.5782 5.7575V4.2875ZM14.6488 16.6294H15.5676C16.2005 16.6294 16.5169 16.2925 16.5169 15.6187V7.99313C16.5169 7.31938 16.2005 6.9825 15.5676 6.9825H14.6488C14.3221 6.9825 14.0976 7.04375 13.9751 7.16625C13.8526 7.26833 13.7913 7.48271 13.7913 7.80938V15.8025C13.7913 16.1292 13.8526 16.3538 13.9751 16.4762C14.0976 16.5783 14.3221 16.6294 14.6488 16.6294Z" fill="#1B2233"/>
<path d="M28.7227 4.2875H32.2139V19.3244H28.7839V17.8237C28.5389 18.8242 27.8141 19.3244 26.6095 19.3244H25.6602C23.5777 19.3244 22.5364 18.3137 22.5364 16.2925V4.2875H25.997V15.8025C25.997 16.1292 26.0583 16.3538 26.1808 16.4762C26.3033 16.5783 26.5279 16.6294 26.8545 16.6294H27.7733C28.4062 16.6294 28.7227 16.2925 28.7227 15.6187V4.2875Z" fill="#1B2233"/>
<path d="M40.9547 4.22625H41.506V7.2275H40.2197C38.9335 7.2275 38.2903 7.9625 38.2903 9.4325V19.3244H34.8297V4.2875H38.2597V6.21687C38.4231 5.62479 38.7395 5.145 39.2091 4.7775C39.6787 4.41 40.2606 4.22625 40.9547 4.22625Z" fill="#1B2233"/>
<path d="M46.1495 4.2875H49.3957C51.6007 4.2875 52.7032 5.29813 52.7032 7.31938V12.8013H46.1801V15.8944C46.1801 16.221 46.2312 16.4456 46.3332 16.5681C46.4557 16.6702 46.6905 16.7212 47.0376 16.7212H48.4464C48.773 16.7212 48.9976 16.6702 49.1201 16.5681C49.2426 16.4456 49.3039 16.221 49.3039 15.8944V14.7612H52.6726V16.2925C52.6726 18.3137 51.5599 19.3244 49.3345 19.3244H46.1495C43.9241 19.3244 42.8114 18.3137 42.8114 16.2925V7.31938C42.8114 5.29813 43.9241 4.2875 46.1495 4.2875ZM46.1801 10.5656H49.3651V7.68687C49.3651 7.36021 49.3039 7.14583 49.1814 7.04375C49.0589 6.92125 48.8343 6.86 48.5076 6.86H47.0376C46.7109 6.86 46.4864 6.92125 46.3639 7.04375C46.2414 7.14583 46.1801 7.36021 46.1801 7.68687V10.5656Z" fill="#1B2233"/>
<path d="M60.5617 4.2875H61.4804C63.5833 4.2875 64.6348 5.29813 64.6348 7.31938V19.3244H61.1435V7.80938C61.1435 7.48271 61.0823 7.26833 60.9598 7.16625C60.8373 7.04375 60.6127 6.9825 60.286 6.9825H59.3673C58.7344 6.9825 58.4179 7.31938 58.4179 7.99313V19.3244H54.9573V4.2875H58.3873V5.66563C58.6731 4.74688 59.3979 4.2875 60.5617 4.2875Z" fill="#1B2233"/>
<path d="M73.0387 6.9825H70.9868V15.7106C70.9868 16.0373 71.0481 16.2619 71.1706 16.3844C71.2931 16.4865 71.5279 16.5375 71.875 16.5375H73.0081V19.3244H70.8643C68.6389 19.3244 67.5262 18.3137 67.5262 16.2925V6.9825H66.0256V4.2875H67.5262V1.5925H70.9868V4.2875H73.0387V6.9825Z" fill="#1B2233"/>
<path d="M79.9071 0H87.2571C89.4825 0 90.5952 1.01063 90.5952 3.03188V16.2925C90.5952 18.3137 89.4825 19.3244 87.2571 19.3244H79.9071V0ZM87.0427 15.925V3.39937C87.0427 3.07271 86.9815 2.85833 86.859 2.75625C86.7365 2.63375 86.5119 2.5725 86.1852 2.5725H83.429V16.7519H86.1852C86.5119 16.7519 86.7365 16.7008 86.859 16.5987C86.9815 16.4762 87.0427 16.2517 87.0427 15.925Z" fill="#1B2233"/>
<path d="M99.3934 4.2875H102.885V19.3244H99.4547V17.8237C99.2097 18.8242 98.4849 19.3244 97.2803 19.3244H96.3309C94.2484 19.3244 93.2072 18.3137 93.2072 16.2925V4.2875H96.6678V15.8025C96.6678 16.1292 96.7291 16.3538 96.8516 16.4762C96.9741 16.5783 97.1987 16.6294 97.5253 16.6294H98.4441C99.077 16.6294 99.3934 16.2925 99.3934 15.6187V4.2875Z" fill="#1B2233"/>
<path d="M111.105 4.2875H112.024C114.127 4.2875 115.178 5.29813 115.178 7.31938V19.3244H111.687V7.80938C111.687 7.48271 111.626 7.26833 111.503 7.16625C111.381 7.04375 111.156 6.9825 110.829 6.9825H109.91C109.278 6.9825 108.961 7.31938 108.961 7.99313V19.3244H105.5V4.2875H108.931V5.66563C109.216 4.74688 109.941 4.2875 111.105 4.2875Z" fill="#1B2233"/>
<path d="M123.766 4.2875H127.196V19.3244H123.704V18.0381C123.398 18.8956 122.694 19.3244 121.591 19.3244H120.642C118.559 19.3244 117.518 18.3137 117.518 16.2925V7.31938C117.518 5.29813 118.559 4.2875 120.642 4.2875H121.591C122.796 4.2875 123.521 4.7775 123.766 5.7575V4.2875ZM121.836 16.6294H122.755C123.388 16.6294 123.704 16.2925 123.704 15.6187V7.99313C123.704 7.31938 123.388 6.9825 122.755 6.9825H121.836C121.51 6.9825 121.285 7.04375 121.163 7.16625C121.04 7.26833 120.979 7.48271 120.979 7.80938V15.8025C120.979 16.1292 121.04 16.3538 121.163 16.4762C121.285 16.5783 121.51 16.6294 121.836 16.6294Z" fill="#1B2233"/>
<path d="M132.021 4.2875L133.95 16.0781L135.88 4.2875H139.34L136.247 19.3244H131.653L128.56 4.2875H132.021Z" fill="#1B2233"/>
<path d="M146.794 4.2875H150.224V19.3244H146.733V18.0381C146.427 18.8956 145.722 19.3244 144.62 19.3244H143.671C141.588 19.3244 140.547 18.3137 140.547 16.2925V7.31938C140.547 5.29813 141.588 4.2875 143.671 4.2875H144.62C145.824 4.2875 146.549 4.7775 146.794 5.7575V4.2875ZM144.865 16.6294H145.784C146.417 16.6294 146.733 16.2925 146.733 15.6187V7.99313C146.733 7.31938 146.417 6.9825 145.784 6.9825H144.865C144.538 6.9825 144.314 7.04375 144.191 7.16625C144.069 7.26833 144.007 7.48271 144.007 7.80938V15.8025C144.007 16.1292 144.069 16.3538 144.191 16.4762C144.314 16.5783 144.538 16.6294 144.865 16.6294Z" fill="#1B2233"/>
<path d="M158.418 4.2875H159.337C161.44 4.2875 162.491 5.29813 162.491 7.31938V19.3244H159V7.80938C159 7.48271 158.939 7.26833 158.816 7.16625C158.694 7.04375 158.469 6.9825 158.142 6.9825H157.224C156.591 6.9825 156.274 7.31938 156.274 7.99313V19.3244H152.814V4.2875H156.244V5.66563C156.53 4.74688 157.254 4.2875 158.418 4.2875Z" fill="#1B2233"/>
<path d="M170.895 6.9825H168.843V15.7106C168.843 16.0373 168.905 16.2619 169.027 16.3844C169.15 16.4865 169.384 16.5375 169.731 16.5375H170.865V19.3244H168.721C166.495 19.3244 165.383 18.3137 165.383 16.2925V6.9825H163.882V4.2875H165.383V1.5925H168.843V4.2875H170.895V6.9825Z" fill="#1B2233"/>
</svg>
